# xmcd
#
# Track frame offsets:
#	150
#	16120
#	34283
#	52327
#	71426
#	86500
#	105276
#	124794
#	141510
#	158928
#	178959
#	193533
#	207257
#	223397
#	241913
#
# Disc length: 3464 seconds
#
# Revision: 7
# Processed by: cddbd v1.5.2PL0 Copyright (c) Steve Scherf et al.
# Submitted via: EasyCDDAExtractor 16.0.9.1
#
DISCID=df0d860f
DTITLE=Thalia - El Sexto Sentido
DYEAR=2005
DGENRE=Latin
TTITLE0=Amar Sin Ser Amada
TTITLE1=Seduccion
TTITLE2=Un Sueño Para Dos
TTITLE3=Sabe Bien
TTITLE4=24,000 Besos (24,000 Baci)
TTITLE5=Olvidame
TTITLE6=No Puedo Vivir Sin Ti
TTITLE7=Un Alma Sentenciada
TTITLE8=No Me Voy A Quebrar
TTITLE9=Loca
TTITLE10=Empezar De ''0''
TTITLE11=Amor Prohibido (Bonus Track)
TTITLE12=You Know He Never Loved You
TTITLE13=Seduction
TTITLE14=A Dream For Two
EXTD=
EXTT0=
EXTT1=
EXTT2=
EXTT3=
EXTT4=
EXTT5=
EXTT6=
EXTT7=
EXTT8=
EXTT9=
EXTT10=
EXTT11=
EXTT12=
EXTT13=
EXTT14=
PLAYORDER=
